<?xml version="1.0" encoding="UTF-8" standalone="no"?>
<!DOCTYPE svg PUBLIC "-//W3C//DTD SVG 1.1//EN"
 "http://www.w3.org/Graphics/SVG/1.1/DTD/svg11.dtd">
<!-- Generated by graphviz version 2.28.0 (20121002.1015)
 -->
<!-- Title: G Pages: 1 -->
<svg width="728pt" height="384pt"
 viewBox="0.00 0.00 728.00 384.00" xmlns="http://www.w3.org/2000/svg" xmlns:xlink="http://www.w3.org/1999/xlink">
<g id="graph1" class="graph" transform="scale(1 1) rotate(0) translate(4 380)">
<title>G</title>
<polygon fill="white" stroke="white" points="-4,5 -4,-380 725,-380 725,5 -4,5"/>
<g id="graph2" class="cluster"><title>cluster_eu</title>
<polyline fill="none" stroke="gray" points="156,-8 700,-8 "/>
<path fill="none" stroke="gray" d="M700,-8C706,-8 712,-14 712,-20"/>
<polyline fill="none" stroke="gray" points="712,-20 712,-356 "/>
<path fill="none" stroke="gray" d="M712,-356C712,-362 706,-368 700,-368"/>
<polyline fill="none" stroke="gray" points="700,-368 156,-368 "/>
<path fill="none" stroke="gray" d="M156,-368C150,-368 144,-362 144,-356"/>
<polyline fill="none" stroke="gray" points="144,-356 144,-20 "/>
<path fill="none" stroke="gray" d="M144,-20C144,-14 150,-8 156,-8"/>
<text text-anchor="middle" x="428" y="-355.2" font-family="Times,serif" font-size="11.00" fill="gray">eu</text>
</g>
<g id="graph3" class="cluster"><title>cluster_eu\maxschuster</title>
<polyline fill="none" stroke="gray" points="164,-16 692,-16 "/>
<path fill="none" stroke="gray" d="M692,-16C698,-16 704,-22 704,-28"/>
<polyline fill="none" stroke="gray" points="704,-28 704,-328 "/>
<path fill="none" stroke="gray" d="M704,-328C704,-334 698,-340 692,-340"/>
<polyline fill="none" stroke="gray" points="692,-340 164,-340 "/>
<path fill="none" stroke="gray" d="M164,-340C158,-340 152,-334 152,-328"/>
<polyline fill="none" stroke="gray" points="152,-328 152,-28 "/>
<path fill="none" stroke="gray" d="M152,-28C152,-22 158,-16 164,-16"/>
<text text-anchor="middle" x="428" y="-327.2" font-family="Times,serif" font-size="11.00" fill="gray">maxschuster</text>
</g>
<g id="graph4" class="cluster"><title>cluster_eu\maxschuster\smallrest</title>
<polyline fill="none" stroke="gray" points="172,-24 684,-24 "/>
<path fill="none" stroke="gray" d="M684,-24C690,-24 696,-30 696,-36"/>
<polyline fill="none" stroke="gray" points="696,-36 696,-300 "/>
<path fill="none" stroke="gray" d="M696,-300C696,-306 690,-312 684,-312"/>
<polyline fill="none" stroke="gray" points="684,-312 172,-312 "/>
<path fill="none" stroke="gray" d="M172,-312C166,-312 160,-306 160,-300"/>
<polyline fill="none" stroke="gray" points="160,-300 160,-36 "/>
<path fill="none" stroke="gray" d="M160,-36C160,-30 166,-24 172,-24"/>
<text text-anchor="middle" x="428" y="-299.2" font-family="Times,serif" font-size="11.00" fill="gray">smallrest</text>
</g>
<g id="graph5" class="cluster"><title>cluster_eu\maxschuster\smallrest\errormessages</title>
<polyline fill="none" stroke="gray" points="224,-212 632,-212 "/>
<path fill="none" stroke="gray" d="M632,-212C638,-212 644,-218 644,-224"/>
<polyline fill="none" stroke="gray" points="644,-224 644,-272 "/>
<path fill="none" stroke="gray" d="M644,-272C644,-278 638,-284 632,-284"/>
<polyline fill="none" stroke="gray" points="632,-284 224,-284 "/>
<path fill="none" stroke="gray" d="M224,-284C218,-284 212,-278 212,-272"/>
<polyline fill="none" stroke="gray" points="212,-272 212,-224 "/>
<path fill="none" stroke="gray" d="M212,-224C212,-218 218,-212 224,-212"/>
<text text-anchor="middle" x="428" y="-271.2" font-family="Times,serif" font-size="11.00" fill="gray">errormessages</text>
</g>
<g id="graph6" class="cluster"><title>cluster_eu\maxschuster\smallrest\exceptions</title>
<polyline fill="none" stroke="gray" points="180,-132 676,-132 "/>
<path fill="none" stroke="gray" d="M676,-132C682,-132 688,-138 688,-144"/>
<polyline fill="none" stroke="gray" points="688,-144 688,-192 "/>
<path fill="none" stroke="gray" d="M688,-192C688,-198 682,-204 676,-204"/>
<polyline fill="none" stroke="gray" points="676,-204 180,-204 "/>
<path fill="none" stroke="gray" d="M180,-204C174,-204 168,-198 168,-192"/>
<polyline fill="none" stroke="gray" points="168,-192 168,-144 "/>
<path fill="none" stroke="gray" d="M168,-144C168,-138 174,-132 180,-132"/>
<text text-anchor="middle" x="428" y="-191.2" font-family="Times,serif" font-size="11.00" fill="gray">exceptions</text>
</g>
<!-- \\eu\\maxschuster\\smallrest\\errormessages\\CouldNotHandleRequest -->
<g id="node5" class="node"><title>\\eu\\maxschuster\\smallrest\\errormessages\\CouldNotHandleRequest</title>
<a xlink:href="errormessages.CouldNotHandleRequest.html" xlink:title="CouldNotHandleRequest" target="_parent">
<polygon fill="none" stroke="black" points="636,-256 478,-256 478,-220 636,-220 636,-256"/>
<text text-anchor="middle" x="557" y="-235.2" font-family="Courier,monospace" font-size="11.00">CouldNotHandleRequest</text>
</a>
</g>
<!-- \\eu\\maxschuster\\smallrest\\errormessages\\ErrorMessage -->
<g id="node6" class="node"><title>\\eu\\maxschuster\\smallrest\\errormessages\\ErrorMessage</title>
<a xlink:href="errormessages.ErrorMessage.html" xlink:title="ErrorMessage" target="_parent">
<polygon fill="none" stroke="black" points="318,-256 220,-256 220,-220 318,-220 318,-256"/>
<text text-anchor="middle" x="269" y="-235.2" font-family="Courier,monospace" font-size="11.00">ErrorMessage</text>
</a>
</g>
<!-- \\eu\\maxschuster\\smallrest\\errormessages\\CouldNotHandleRequest&#45;&gt;\\eu\\maxschuster\\smallrest\\errormessages\\ErrorMessage -->
<g id="edge14" class="edge"><title>\\eu\\maxschuster\\smallrest\\errormessages\\CouldNotHandleRequest&#45;&gt;\\eu\\maxschuster\\smallrest\\errormessages\\ErrorMessage</title>
<path fill="none" stroke="black" d="M477.849,-238C430.537,-238 371.209,-238 328.062,-238"/>
<polygon fill="none" stroke="black" points="328.011,-234.5 318.011,-238 328.011,-241.5 328.011,-234.5"/>
</g>
<!-- \\eu\\maxschuster\\smallrest\\exceptions\\NoResponsibleHandlerFoundException -->
<g id="node8" class="node"><title>\\eu\\maxschuster\\smallrest\\exceptions\\NoResponsibleHandlerFoundException</title>
<a xlink:href="exceptions.NoResponsibleHandlerFoundException.html" xlink:title="NoResponsibleHandlerFoundException" target="_parent">
<polygon fill="none" stroke="black" points="680,-176 434,-176 434,-140 680,-140 680,-176"/>
<text text-anchor="middle" x="557" y="-155.2" font-family="Courier,monospace" font-size="11.00">NoResponsibleHandlerFoundException</text>
</a>
</g>
<!-- \\eu\\maxschuster\\smallrest\\exceptions\\SmallRESTServiceException -->
<g id="node9" class="node"><title>\\eu\\maxschuster\\smallrest\\exceptions\\SmallRESTServiceException</title>
<a xlink:href="exceptions.SmallRESTServiceException.html" xlink:title="SmallRESTServiceException" target="_parent">
<polygon fill="none" stroke="black" points="361.5,-176 176.5,-176 176.5,-140 361.5,-140 361.5,-176"/>
<text text-anchor="middle" x="269" y="-155.2" font-family="Courier,monospace" font-size="11.00">SmallRESTServiceException</text>
</a>
</g>
<!-- \\eu\\maxschuster\\smallrest\\exceptions\\NoResponsibleHandlerFoundException&#45;&gt;\\eu\\maxschuster\\smallrest\\exceptions\\SmallRESTServiceException -->
<g id="edge16" class="edge"><title>\\eu\\maxschuster\\smallrest\\exceptions\\NoResponsibleHandlerFoundException&#45;&gt;\\eu\\maxschuster\\smallrest\\exceptions\\SmallRESTServiceException</title>
<path fill="none" stroke="black" d="M433.881,-158C413.23,-158 391.985,-158 371.919,-158"/>
<polygon fill="none" stroke="black" points="371.859,-154.5 361.859,-158 371.859,-161.5 371.859,-154.5"/>
</g>
<!-- \\Exception -->
<g id="node22" class="node"><title>\\Exception</title>
<ellipse fill="none" stroke="black" cx="52" cy="-158" rx="51.1914" ry="18"/>
<text text-anchor="middle" x="52" y="-154.3" font-family="Times,serif" font-size="14.00" fill="gray">\Exception</text>
</g>
<!-- \\eu\\maxschuster\\smallrest\\exceptions\\SmallRESTServiceException&#45;&gt;\\Exception -->
<g id="edge18" class="edge"><title>\\eu\\maxschuster\\smallrest\\exceptions\\SmallRESTServiceException&#45;&gt;\\Exception</title>
<path fill="none" stroke="black" d="M176.197,-158C155.106,-158 133.192,-158 113.796,-158"/>
<polygon fill="none" stroke="black" points="113.601,-154.5 103.601,-158 113.601,-161.5 113.601,-154.5"/>
</g>
<!-- \\eu\\maxschuster\\smallrest\\HandlerInterface -->
<g id="node10" class="node"><title>\\eu\\maxschuster\\smallrest\\HandlerInterface</title>
<a xlink:href="HandlerInterface.html" xlink:title="HandlerInterface" target="_parent">
<polygon fill="none" stroke="black" points="619.5,-122 494.5,-122 494.5,-86 619.5,-86 619.5,-122"/>
<text text-anchor="middle" x="557" y="-101.2" font-family="Courier,monospace" font-size="11.00">HandlerInterface</text>
</a>
</g>
<!-- \\eu\\maxschuster\\smallrest\\SmallRESTService -->
<g id="node11" class="node"><title>\\eu\\maxschuster\\smallrest\\SmallRESTService</title>
<a xlink:href="SmallRESTService.html" xlink:title="SmallRESTService" target="_parent">
<polygon fill="none" stroke="black" points="619.5,-68 494.5,-68 494.5,-32 619.5,-32 619.5,-68"/>
<text text-anchor="middle" x="557" y="-47.2" font-family="Courier,monospace" font-size="11.00">SmallRESTService</text>
</a>
</g>
</g>
</svg>
